<svg width="1024" height="1024" viewBox="0 0 1024 1024" fill="none" xmlns="http://www.w3.org/2000/svg">
<g clip-path="url(#clip0_59_139)">
<path d="M784 0H240C107.452 0 0 107.452 0 240V784C0 916.548 107.452 1024 240 1024H784C916.548 1024 1024 916.548 1024 784V240C1024 107.452 916.548 0 784 0Z" fill="#051121" style="fill:#051121;fill:color(display-p3 0.0196 0.0667 0.1294);fill-opacity:1;"/>
<path d="M784 0H240C107.452 0 0 107.452 0 240V784C0 916.548 107.452 1024 240 1024H784C916.548 1024 1024 916.548 1024 784V240C1024 107.452 916.548 0 784 0Z" fill="url(#paint0_radial_59_139)"/>
<g filter="url(#filter0_f_59_139)">
<path opacity="0.9" d="M512 876C713.032 876 876 713.032 876 512C876 310.968 713.032 148 512 148C310.968 148 148 310.968 148 512C148 713.032 310.968 876 512 876Z" fill="url(#paint1_radial_59_139)"/>
<path d="M512 812C677.685 812 812 677.685 812 512C812 346.315 677.685 212 512 212C346.315 212 212 346.315 212 512C212 677.685 346.315 812 512 812Z" stroke="url(#paint2_linear_59_139)" stroke-width="2"/>
<path d="M512 730C632.398 730 730 632.398 730 512C730 391.602 632.398 294 512 294C391.602 294 294 391.602 294 512C294 632.398 391.602 730 512 730Z" stroke="#7ADFFF" stroke-opacity="0.12" style="stroke:#7ADFFF;stroke:color(display-p3 0.4784 0.8745 1.0000);stroke-opacity:0.12;" stroke-width="1.5"/>
</g>
<path d="M512 814C678.79 814 814 678.79 814 512C814 345.21 678.79 210 512 210C345.21 210 210 345.21 210 512C210 678.79 345.21 814 512 814Z" stroke="#1E88DF" stroke-opacity="0.2" style="stroke:#1E88DF;stroke:color(display-p3 0.1176 0.5333 0.8745);stroke-opacity:0.2;" stroke-width="2"/>
<path d="M512 766C652.28 766 766 652.28 766 512C766 371.72 652.28 258 512 258C371.72 258 258 371.72 258 512C258 652.28 371.72 766 512 766Z" stroke="#8B89FF" stroke-opacity="0.06" style="stroke:#8B89FF;stroke:color(display-p3 0.5451 0.5373 1.0000);stroke-opacity:0.06;" stroke-width="1.5"/>
<path d="M230 512C230 356.808 356.808 230 512 230" stroke="#75E5FF" stroke-opacity="0.22" style="stroke:#75E5FF;stroke:color(display-p3 0.4588 0.8980 1.0000);stroke-opacity:0.22;" stroke-width="3" stroke-linecap="round"/>
<path d="M512 230C667.192 230 794 356.808 794 512" stroke="#7DA8FF" stroke-opacity="0.18" style="stroke:#7DA8FF;stroke:color(display-p3 0.4902 0.6588 1.0000);stroke-opacity:0.18;" stroke-width="3" stroke-linecap="round"/>
<path d="M790 546C772 669 675 766 552 790" stroke="#8B88FF" stroke-opacity="0.12" style="stroke:#8B88FF;stroke:color(display-p3 0.5451 0.5333 1.0000);stroke-opacity:0.12;" stroke-width="3" stroke-linecap="round"/>
<path d="M472 790C345 773 246 674 232 548" stroke="#7DE7FF" stroke-opacity="0.1" style="stroke:#7DE7FF;stroke:color(display-p3 0.4902 0.9059 1.0000);stroke-opacity:0.1;" stroke-width="3" stroke-linecap="round"/>
<g opacity="0.55" filter="url(#filter1_f_59_139)">
<path d="M512 198V214" stroke="#A9EFFF" style="stroke:#A9EFFF;stroke:color(display-p3 0.6627 0.9373 1.0000);stroke-opacity:1;" stroke-width="4" stroke-linecap="round"/>
<path d="M826 512H810" stroke="#B6BDFF" style="stroke:#B6BDFF;stroke:color(display-p3 0.7137 0.7412 1.0000);stroke-opacity:1;" stroke-width="4" stroke-linecap="round"/>
<path d="M512 826V810" stroke="#A8AFFF" style="stroke:#A8AFFF;stroke:color(display-p3 0.6588 0.6863 1.0000);stroke-opacity:1;" stroke-width="4" stroke-linecap="round"/>
<path d="M198 512H214" stroke="#9AE6FF" style="stroke:#9AE6FF;stroke:color(display-p3 0.6039 0.9020 1.0000);stroke-opacity:1;" stroke-width="4" stroke-linecap="round"/>
<path d="M512 202C514.209 202 516 200.209 516 198C516 195.791 514.209 194 512 194C509.791 194 508 195.791 508 198C508 200.209 509.791 202 512 202Z" fill="#A9EFFF" style="fill:#A9EFFF;fill:color(display-p3 0.6627 0.9373 1.0000);fill-opacity:1;"/>
<path d="M826 516C828.209 516 830 514.209 830 512C830 509.791 828.209 508 826 508C823.791 508 822 509.791 822 512C822 514.209 823.791 516 826 516Z" fill="#B6BDFF" style="fill:#B6BDFF;fill:color(display-p3 0.7137 0.7412 1.0000);fill-opacity:1;"/>
<path d="M512 830C514.209 830 516 828.209 516 826C516 823.791 514.209 822 512 822C509.791 822 508 823.791 508 826C508 828.209 509.791 830 512 830Z" fill="#A8AFFF" style="fill:#A8AFFF;fill:color(display-p3 0.6588 0.6863 1.0000);fill-opacity:1;"/>
<path d="M198 516C200.209 516 202 514.209 202 512C202 509.791 200.209 508 198 508C195.791 508 194 509.791 194 512C194 514.209 195.791 516 198 516Z" fill="#9AE6FF" style="fill:#9AE6FF;fill:color(display-p3 0.6039 0.9020 1.0000);fill-opacity:1;"/>
</g>
<g filter="url(#filter2_d_59_139)">
<path d="M512 224L730 328V498C730 636 636 760 512 798C388 760 294 636 294 498V328L512 224Z" fill="url(#paint3_linear_59_139)" stroke="url(#paint4_linear_59_139)" stroke-width="14"/>
<path d="M512 248L706 341V499C706 623 623 734 512 773C401 734 318 623 318 499V341L512 248Z" stroke="url(#paint5_linear_59_139)" stroke-opacity="0.84" stroke-width="14"/>
<path d="M512 266L689 351V497C689 609 615 710 512 746C409 710 335 609 335 497V351L512 266Z" stroke="white" stroke-opacity="0.12" style="stroke:white;stroke-opacity:0.12;" stroke-width="2"/>
</g>
<mask id="mask0_59_139" style="mask-type:luminance" maskUnits="userSpaceOnUse" x="294" y="224" width="436" height="574">
<path d="M512 224L730 328V498C730 636 636 760 512 798C388 760 294 636 294 498V328L512 224Z" fill="white" style="fill:white;fill-opacity:1;"/>
</mask>
<g mask="url(#mask0_59_139)">
<path opacity="0.74" d="M308 284C401 258 505 256 627 287C546 364 472 453 399 596C356 506 331 413 308 284Z" fill="url(#paint6_linear_59_139)"/>
<path d="M348 356L365 364V517C365 591 389 659 432 711" stroke="#9DEBFF" stroke-opacity="0.11" style="stroke:#9DEBFF;stroke:color(display-p3 0.6157 0.9216 1.0000);stroke-opacity:0.11;" stroke-width="6" stroke-linecap="round"/>
<path d="M676 356L659 364V517C659 591 635 659 592 711" stroke="#ACB1FF" stroke-opacity="0.11" style="stroke:#ACB1FF;stroke:color(display-p3 0.6745 0.6941 1.0000);stroke-opacity:0.11;" stroke-width="6" stroke-linecap="round"/>
<path d="M399 300L512 247L625 300" stroke="white" stroke-opacity="0.08" style="stroke:white;stroke-opacity:0.08;" stroke-width="3" stroke-linecap="round"/>
<path d="M314 334L512 242L710 334V502C710 580 678 651 624 706C643 646 651 587 651 531V373L512 309L373 373V531C373 587 381 646 400 706C346 651 314 580 314 502V334Z" fill="white" fill-opacity="0.025" style="fill:white;fill-opacity:0.025;"/>
<path d="M314 334L512 242L710 334" stroke="white" stroke-opacity="0.06" style="stroke:white;stroke-opacity:0.06;" stroke-width="2"/>
<path d="M371 382L512 317L653 382V526C653 624 596 709 512 753C428 709 371 624 371 526V382Z" stroke="white" stroke-opacity="0.045" style="stroke:white;stroke-opacity:0.045;" stroke-width="1.5"/>
<path d="M329 300C399 290 467 294 534 313C474 364 424 434 380 533C351 468 334 393 329 300Z" fill="url(#paint7_linear_59_139)"/>
<path d="M694 350C707 419 705 499 686 581C651 656 592 711 512 746C608 645 667 514 694 350Z" fill="url(#paint8_linear_59_139)"/>
<path d="M342 501C342 401 396 338 512 291C628 338 682 401 682 501" stroke="white" stroke-opacity="0.05" style="stroke:white;stroke-opacity:0.05;" stroke-width="2"/>
<path d="M378 622C418 681 462 721 512 746C562 721 606 681 646 622" stroke="white" stroke-opacity="0.045" style="stroke:white;stroke-opacity:0.045;" stroke-width="2"/>
<path d="M512 724C578.274 724 632 703.405 632 678C632 652.595 578.274 632 512 632C445.726 632 392 652.595 392 678C392 703.405 445.726 724 512 724Z" fill="#A0B3FF" fill-opacity="0.045" style="fill:#A0B3FF;fill:color(display-p3 0.6275 0.7020 1.0000);fill-opacity:0.045;"/>
<path d="M395 714C456 748 507 760 512 760C517 760 568 748 629 714" stroke="#D8DCFF" stroke-opacity="0.055" style="stroke:#D8DCFF;stroke:color(display-p3 0.8471 0.8627 1.0000);stroke-opacity:0.055;" stroke-width="2"/>
</g>
<g opacity="0.18">
<path d="M281 405.5C282.933 405.5 284.5 403.933 284.5 402C284.5 400.067 282.933 398.5 281 398.5C279.067 398.5 277.5 400.067 277.5 402C277.5 403.933 279.067 405.5 281 405.5Z" fill="#8CE8FF" style="fill:#8CE8FF;fill:color(display-p3 0.5490 0.9098 1.0000);fill-opacity:1;"/>
<path d="M728 341.5C729.933 341.5 731.5 339.933 731.5 338C731.5 336.067 729.933 334.5 728 334.5C726.067 334.5 724.5 336.067 724.5 338C724.5 339.933 726.067 341.5 728 341.5Z" fill="#9FB4FF" style="fill:#9FB4FF;fill:color(display-p3 0.6235 0.7059 1.0000);fill-opacity:1;"/>
<path d="M760 709.5C761.933 709.5 763.5 707.933 763.5 706C763.5 704.067 761.933 702.5 760 702.5C758.067 702.5 756.5 704.067 756.5 706C756.5 707.933 758.067 709.5 760 709.5Z" fill="#8DA2FF" style="fill:#8DA2FF;fill:color(display-p3 0.5529 0.6353 1.0000);fill-opacity:1;"/>
<path d="M321 751.5C322.933 751.5 324.5 749.933 324.5 748C324.5 746.067 322.933 744.5 321 744.5C319.067 744.5 317.5 746.067 317.5 748C317.5 749.933 319.067 751.5 321 751.5Z" fill="#88E2FF" style="fill:#88E2FF;fill:color(display-p3 0.5333 0.8863 1.0000);fill-opacity:1;"/>
<path d="M690 778.5C691.381 778.5 692.5 777.381 692.5 776C692.5 774.619 691.381 773.5 690 773.5C688.619 773.5 687.5 774.619 687.5 776C687.5 777.381 688.619 778.5 690 778.5Z" fill="#A7C8FF" style="fill:#A7C8FF;fill:color(display-p3 0.6549 0.7843 1.0000);fill-opacity:1;"/>
<path d="M256 614.5C257.381 614.5 258.5 613.381 258.5 612C258.5 610.619 257.381 609.5 256 609.5C254.619 609.5 253.5 610.619 253.5 612C253.5 613.381 254.619 614.5 256 614.5Z" fill="#7EE8FF" style="fill:#7EE8FF;fill:color(display-p3 0.4941 0.9098 1.0000);fill-opacity:1;"/>
</g>
<g filter="url(#filter3_f_59_139)">
<path d="M550 354L442 504H516L450 658L582 492H504L550 354Z" fill="url(#paint9_linear_59_139)"/>
</g>
<path d="M550 354L442 504H516L450 658L582 492H504L550 354Z" fill="url(#paint10_linear_59_139)" stroke="#FFF6BE" style="stroke:#FFF6BE;stroke:color(display-p3 1.0000 0.9647 0.7451);stroke-opacity:1;" stroke-width="10" stroke-linejoin="round"/>
</g>
<defs>
<filter id="filter0_f_59_139" x="64" y="64" width="896" height="896" filterUnits="userSpaceOnUse" color-interpolation-filters="sRGB">
<feFlood flood-opacity="0" result="BackgroundImageFix"/>
<feBlend mode="normal" in="SourceGraphic" in2="BackgroundImageFix" result="shape"/>
<feGaussianBlur stdDeviation="42" result="effect1_foregroundBlur_59_139"/>
</filter>
<filter id="filter1_f_59_139" x="186" y="186" width="652" height="652" filterUnits="userSpaceOnUse" color-interpolation-filters="sRGB">
<feFlood flood-opacity="0" result="BackgroundImageFix"/>
<feBlend mode="normal" in="SourceGraphic" in2="BackgroundImageFix" result="shape"/>
<feGaussianBlur stdDeviation="4" result="effect1_foregroundBlur_59_139"/>
</filter>
<filter id="filter2_d_59_139" x="219" y="160.244" width="586" height="725.077" filterUnits="userSpaceOnUse" color-interpolation-filters="sRGB">
<feFlood flood-opacity="0" result="BackgroundImageFix"/>
<feColorMatrix in="SourceAlpha" type="matrix" values="0 0 0 0 0 0 0 0 0 0 0 0 0 0 0 0 0 0 127 0" result="hardAlpha"/>
<feOffset dy="12"/>
<feGaussianBlur stdDeviation="34"/>
<feComposite in2="hardAlpha" operator="out"/>
<feColorMatrix type="matrix" values="0 0 0 0 0.13 0 0 0 0 0.56 0 0 0 0 1 0 0 0 0.25 0"/>
<feBlend mode="normal" in2="BackgroundImageFix" result="effect1_dropShadow_59_139"/>
<feBlend mode="normal" in="SourceGraphic" in2="effect1_dropShadow_59_139" result="shape"/>
</filter>
<filter id="filter3_f_59_139" x="406" y="318" width="212" height="376" filterUnits="userSpaceOnUse" color-interpolation-filters="sRGB">
<feFlood flood-opacity="0" result="BackgroundImageFix"/>
<feBlend mode="normal" in="SourceGraphic" in2="BackgroundImageFix" result="shape"/>
<feGaussianBlur stdDeviation="18" result="effect1_foregroundBlur_59_139"/>
</filter>
<radialGradient id="paint0_radial_59_139" cx="0" cy="0" r="1" gradientUnits="userSpaceOnUse" gradientTransform="translate(512 486) rotate(90) scale(560)">
<stop stop-color="#12386C" style="stop-color:#12386C;stop-color:color(display-p3 0.0706 0.2196 0.4235);stop-opacity:1;"/>
<stop offset="0.34" stop-color="#0C2047" style="stop-color:#0C2047;stop-color:color(display-p3 0.0471 0.1255 0.2784);stop-opacity:1;"/>
<stop offset="0.72" stop-color="#071735" style="stop-color:#071735;stop-color:color(display-p3 0.0275 0.0902 0.2078);stop-opacity:1;"/>
<stop offset="1" stop-color="#041022" style="stop-color:#041022;stop-color:color(display-p3 0.0157 0.0627 0.1333);stop-opacity:1;"/>
</radialGradient>
<radialGradient id="paint1_radial_59_139" cx="0" cy="0" r="1" gradientUnits="userSpaceOnUse" gradientTransform="translate(430 372) rotate(49) scale(640 610)">
<stop stop-color="#123D6A" stop-opacity="0.95" style="stop-color:#123D6A;stop-color:color(display-p3 0.0706 0.2392 0.4157);stop-opacity:0.95;"/>
<stop offset="0.44" stop-color="#102955" stop-opacity="0.9" style="stop-color:#102955;stop-color:color(display-p3 0.0627 0.1608 0.3333);stop-opacity:0.9;"/>
<stop offset="1" stop-color="#171D4A" stop-opacity="0.95" style="stop-color:#171D4A;stop-color:color(display-p3 0.0902 0.1137 0.2902);stop-opacity:0.95;"/>
</radialGradient>
<linearGradient id="paint2_linear_59_139" x1="230" y1="278" x2="775" y2="760" gradientUnits="userSpaceOnUse">
<stop stop-color="#6EDFFF" stop-opacity="0.28" style="stop-color:#6EDFFF;stop-color:color(display-p3 0.4314 0.8745 1.0000);stop-opacity:0.28;"/>
<stop offset="0.5" stop-color="#59AFFF" stop-opacity="0.04" style="stop-color:#59AFFF;stop-color:color(display-p3 0.3490 0.6863 1.0000);stop-opacity:0.04;"/>
<stop offset="1" stop-color="#8A85FF" stop-opacity="0.26" style="stop-color:#8A85FF;stop-color:color(display-p3 0.5412 0.5216 1.0000);stop-opacity:0.26;"/>
</linearGradient>
<linearGradient id="paint3_linear_59_139" x1="282" y1="242" x2="744" y2="808" gradientUnits="userSpaceOnUse">
<stop stop-color="#34D6FF" stop-opacity="0.3" style="stop-color:#34D6FF;stop-color:color(display-p3 0.2039 0.8392 1.0000);stop-opacity:0.3;"/>
<stop offset="0.22" stop-color="#2EB9F5" stop-opacity="0.24" style="stop-color:#2EB9F5;stop-color:color(display-p3 0.1804 0.7255 0.9608);stop-opacity:0.24;"/>
<stop offset="0.58" stop-color="#4E88EA" stop-opacity="0.2" style="stop-color:#4E88EA;stop-color:color(display-p3 0.3059 0.5333 0.9176);stop-opacity:0.2;"/>
<stop offset="1" stop-color="#8B76FF" stop-opacity="0.28" style="stop-color:#8B76FF;stop-color:color(display-p3 0.5451 0.4627 1.0000);stop-opacity:0.28;"/>
</linearGradient>
<linearGradient id="paint4_linear_59_139" x1="304" y1="248" x2="724" y2="790" gradientUnits="userSpaceOnUse">
<stop stop-color="#80EEFF" style="stop-color:#80EEFF;stop-color:color(display-p3 0.5020 0.9333 1.0000);stop-opacity:1;"/>
<stop offset="0.42" stop-color="#77BAFF" style="stop-color:#77BAFF;stop-color:color(display-p3 0.4667 0.7294 1.0000);stop-opacity:1;"/>
<stop offset="1" stop-color="#968CFF" style="stop-color:#968CFF;stop-color:color(display-p3 0.5882 0.5490 1.0000);stop-opacity:1;"/>
</linearGradient>
<linearGradient id="paint5_linear_59_139" x1="330" y1="268" x2="692" y2="750" gradientUnits="userSpaceOnUse">
<stop stop-color="#DBFBFF" stop-opacity="0.96" style="stop-color:#DBFBFF;stop-color:color(display-p3 0.8588 0.9843 1.0000);stop-opacity:0.96;"/>
<stop offset="0.48" stop-color="#A0D7FF" stop-opacity="0.74" style="stop-color:#A0D7FF;stop-color:color(display-p3 0.6275 0.8431 1.0000);stop-opacity:0.74;"/>
<stop offset="1" stop-color="#DBD4FF" stop-opacity="0.88" style="stop-color:#DBD4FF;stop-color:color(display-p3 0.8588 0.8314 1.0000);stop-opacity:0.88;"/>
</linearGradient>
<linearGradient id="paint6_linear_59_139" x1="344" y1="292" x2="602" y2="566" gradientUnits="userSpaceOnUse">
<stop stop-color="white" stop-opacity="0.23" style="stop-color:white;stop-opacity:0.23;"/>
<stop offset="0.48" stop-color="white" stop-opacity="0.08" style="stop-color:white;stop-opacity:0.08;"/>
<stop offset="1" stop-color="white" stop-opacity="0" style="stop-color:none;stop-opacity:0;"/>
</linearGradient>
<linearGradient id="paint7_linear_59_139" x1="320" y1="302" x2="503" y2="668" gradientUnits="userSpaceOnUse">
<stop stop-color="#93F1FF" stop-opacity="0.16" style="stop-color:#93F1FF;stop-color:color(display-p3 0.5765 0.9451 1.0000);stop-opacity:0.16;"/>
<stop offset="1" stop-color="#8EE3FF" stop-opacity="0.02" style="stop-color:#8EE3FF;stop-color:color(display-p3 0.5569 0.8902 1.0000);stop-opacity:0.02;"/>
</linearGradient>
<linearGradient id="paint8_linear_59_139" x1="706" y1="316" x2="516" y2="722" gradientUnits="userSpaceOnUse">
<stop stop-color="#A6AEFF" stop-opacity="0.16" style="stop-color:#A6AEFF;stop-color:color(display-p3 0.6510 0.6824 1.0000);stop-opacity:0.16;"/>
<stop offset="1" stop-color="#A6AEFF" stop-opacity="0.03" style="stop-color:#A6AEFF;stop-color:color(display-p3 0.6510 0.6824 1.0000);stop-opacity:0.03;"/>
</linearGradient>
<linearGradient id="paint9_linear_59_139" x1="437" y1="334" x2="592" y2="662" gradientUnits="userSpaceOnUse">
<stop stop-color="#FFF4AE" style="stop-color:#FFF4AE;stop-color:color(display-p3 1.0000 0.9569 0.6824);stop-opacity:1;"/>
<stop offset="0.32" stop-color="#FFE95A" style="stop-color:#FFE95A;stop-color:color(display-p3 1.0000 0.9137 0.3529);stop-opacity:1;"/>
<stop offset="0.66" stop-color="#F8CF2C" style="stop-color:#F8CF2C;stop-color:color(display-p3 0.9725 0.8118 0.1725);stop-opacity:1;"/>
<stop offset="1" stop-color="#F0AC14" style="stop-color:#F0AC14;stop-color:color(display-p3 0.9412 0.6745 0.0784);stop-opacity:1;"/>
</linearGradient>
<linearGradient id="paint10_linear_59_139" x1="437" y1="334" x2="592" y2="662" gradientUnits="userSpaceOnUse">
<stop stop-color="#FFF4AE" style="stop-color:#FFF4AE;stop-color:color(display-p3 1.0000 0.9569 0.6824);stop-opacity:1;"/>
<stop offset="0.32" stop-color="#FFE95A" style="stop-color:#FFE95A;stop-color:color(display-p3 1.0000 0.9137 0.3529);stop-opacity:1;"/>
<stop offset="0.66" stop-color="#F8CF2C" style="stop-color:#F8CF2C;stop-color:color(display-p3 0.9725 0.8118 0.1725);stop-opacity:1;"/>
<stop offset="1" stop-color="#F0AC14" style="stop-color:#F0AC14;stop-color:color(display-p3 0.9412 0.6745 0.0784);stop-opacity:1;"/>
</linearGradient>
<clipPath id="clip0_59_139">
<rect width="1024" height="1024" fill="white" style="fill:white;fill-opacity:1;"/>
</clipPath>
</defs>
</svg>
